<svg width="26" height="26" viewBox="0 0 26 26" fill="none" xmlns="http://www.w3.org/2000/svg">
<path d="M13.4758 0.5C6.57247 0.5 0.951172 6.1213 0.951172 13.0247C0.951172 19.928 6.57247 25.5493 13.4758 25.5493C20.3792 25.5493 26.0005 19.928 26.0005 13.0247C26.0005 6.1213 20.3792 0.5 13.4758 0.5ZM14.8565 21.999C14.462 22.3442 14.0182 22.5414 13.4758 22.5414C12.9334 22.5414 12.4896 22.3442 12.0952 21.999C11.7007 21.6538 11.5034 21.1607 11.5034 20.5197C11.5034 19.9773 11.7007 19.5335 12.0952 19.1391C12.4896 18.7446 12.9334 18.5473 13.5251 18.5473C14.0675 18.5473 14.5606 18.7446 14.9551 19.1391C15.3496 19.5335 15.5468 19.9773 15.5468 20.5197C15.4482 21.1607 15.251 21.6538 14.8565 21.999ZM15.3496 8.34024L14.7579 14.8491C14.7086 15.6381 14.5606 16.2298 14.3634 16.6243C14.1662 17.0187 13.821 17.2653 13.3772 17.2653C12.8841 17.2653 12.5883 17.068 12.391 16.6736C12.1938 16.2791 12.0952 15.6381 11.9965 14.8491L11.5527 8.53747C11.4541 7.30473 11.4541 6.41716 11.4541 5.87475C11.4541 5.13511 11.6514 4.5927 12.0458 4.14892C12.4403 3.75444 12.9334 3.5572 13.5744 3.5572C14.3141 3.5572 14.8565 3.80375 15.103 4.34615C15.3496 4.88856 15.4975 5.6282 15.4975 6.6144C15.4482 7.1568 15.4482 7.74852 15.3496 8.34024Z" fill="#E61C40"/>
</svg>
