<svg width="32" height="32" viewBox="0 0 32 32" fill="none" xmlns="http://www.w3.org/2000/svg">
<mask id="mask0_105177_1204" style="mask-type:alpha" maskUnits="userSpaceOnUse" x="0" y="0" width="32" height="32">
<rect width="32" height="32" fill="#D9D9D9"/>
</mask>
<g mask="url(#mask0_105177_1204)">
<path d="M6.66634 26.6667V14.4667L2.93301 17.3333L1.33301 15.2L15.9997 4L21.333 8.06667V5.33333H25.333V11.1333L30.6663 15.2L29.0663 17.3333L25.333 14.4667V26.6667H17.333V18.6667H14.6663V26.6667H6.66634ZM9.33301 24H11.9997V16H19.9997V24H22.6663V12.4333L15.9997 7.36667L9.33301 12.4333V24ZM13.333 13.3667H18.6663C18.6663 12.6556 18.3997 12.0722 17.8663 11.6167C17.333 11.1611 16.7108 10.9333 15.9997 10.9333C15.2886 10.9333 14.6663 11.1611 14.133 11.6167C13.5997 12.0722 13.333 12.6556 13.333 13.3667Z" fill="#1C1B1F"/>
</g>
</svg>
